<?xml version="1.0" encoding="utf-8" standalone="no"?>
<!DOCTYPE svg PUBLIC "-//W3C//DTD SVG 1.1//EN"
  "http://www.w3.org/Graphics/SVG/1.1/DTD/svg11.dtd">
<svg xmlns:xlink="http://www.w3.org/1999/xlink" width="460.8pt" height="345.6pt" viewBox="0 0 460.8 345.6" xmlns="http://www.w3.org/2000/svg" version="1.1">
 <metadata>
  <rdf:RDF xmlns:dc="http://purl.org/dc/elements/1.1/" xmlns:cc="http://creativecommons.org/ns#" xmlns:rdf="http://www.w3.org/1999/02/22-rdf-syntax-ns#">
   <cc:Work>
    <dc:type rdf:resource="http://purl.org/dc/dcmitype/StillImage"/>
    <dc:date>2023-11-18T19:09:30.497360</dc:date>
    <dc:format>image/svg+xml</dc:format>
    <dc:creator>
     <cc:Agent>
      <dc:title>Matplotlib v3.8.0, https://matplotlib.org/</dc:title>
     </cc:Agent>
    </dc:creator>
   </cc:Work>
  </rdf:RDF>
 </metadata>
 <defs>
  <style type="text/css">*{stroke-linejoin: round; stroke-linecap: butt}</style>
 </defs>
 <g id="figure_1">
  <g id="patch_1">
   <path d="M 0 345.6 
L 460.8 345.6 
L 460.8 0 
L 0 0 
z
" style="fill: #ffffff"/>
  </g>
  <g id="axes_1">
   <g id="patch_2">
    <path d="M 195.631623 64.564364 
Q 236.160722 64.564364 275.571786 64.564364 
" clip-path="url(#p636fb0b8f6)" style="fill: none; stroke: #000000; stroke-linecap: round"/>
    <path d="M 271.571786 62.564364 
L 275.571786 64.564364 
L 271.571786 66.564364 
z
" clip-path="url(#p636fb0b8f6)" style="stroke: #000000; stroke-linecap: round"/>
   </g>
   <g id="patch_3">
    <path d="M 193.914294 69.739044 
Q 236.159537 101.218564 277.508275 132.030043 
" clip-path="url(#p636fb0b8f6)" style="fill: none; stroke: #ff0000; stroke-linecap: round"/>
    <path d="M 275.495869 128.03627 
L 277.508275 132.030043 
L 273.105813 131.243704 
z
" clip-path="url(#p636fb0b8f6)" style="fill: #ff0000; stroke: #ff0000; stroke-linecap: round"/>
   </g>
   <g id="patch_4">
    <path d="M 291.123552 71.017613 
Q 334.540006 119.546004 377.210996 167.241159 
" clip-path="url(#p636fb0b8f6)" style="fill: none; stroke: #ff0000; stroke-linecap: round"/>
    <path d="M 376.034481 162.926554 
L 377.210996 167.241159 
L 373.053403 165.593608 
z
" clip-path="url(#p636fb0b8f6)" style="fill: #ff0000; stroke: #ff0000; stroke-linecap: round"/>
   </g>
   <g id="patch_5">
    <path d="M 293.465365 140.897052 
Q 334.538807 156.200221 374.56457 171.113046 
" clip-path="url(#p636fb0b8f6)" style="fill: none; stroke: #ff0000; stroke-linecap: round"/>
    <path d="M 371.51455 167.842361 
L 374.56457 171.113046 
L 370.11801 171.59065 
z
" clip-path="url(#p636fb0b8f6)" style="fill: #ff0000; stroke: #ff0000; stroke-linecap: round"/>
   </g>
   <g id="patch_6">
    <path d="M 195.631623 137.873455 
Q 236.160722 137.873455 275.571786 137.873455 
" clip-path="url(#p636fb0b8f6)" style="fill: none; stroke: #ff0000; stroke-linecap: round"/>
    <path d="M 271.571786 135.873455 
L 275.571786 137.873455 
L 271.571786 139.873455 
z
" clip-path="url(#p636fb0b8f6)" style="fill: #ff0000; stroke: #ff0000; stroke-linecap: round"/>
   </g>
   <g id="patch_7">
    <path d="M 193.914294 143.048135 
Q 236.159537 174.527655 277.508275 205.339134 
" clip-path="url(#p636fb0b8f6)" style="fill: none; stroke: #ff0000; stroke-linecap: round"/>
    <path d="M 275.495869 201.345361 
L 277.508275 205.339134 
L 273.105813 204.552795 
z
" clip-path="url(#p636fb0b8f6)" style="fill: #ff0000; stroke: #ff0000; stroke-linecap: round"/>
   </g>
   <g id="patch_8">
    <path d="M 293.465365 208.158948 
Q 334.538807 192.855779 374.56457 177.942954 
" clip-path="url(#p636fb0b8f6)" style="fill: none; stroke: #ff0000; stroke-linecap: round"/>
    <path d="M 370.11801 177.46535 
L 374.56457 177.942954 
L 371.51455 181.213639 
z
" clip-path="url(#p636fb0b8f6)" style="fill: #ff0000; stroke: #ff0000; stroke-linecap: round"/>
   </g>
   <g id="patch_9">
    <path d="M 191.796154 203.989896 
Q 236.159896 137.873609 279.900685 72.685724 
" clip-path="url(#p636fb0b8f6)" style="fill: none; stroke: #ff0000; stroke-linecap: round"/>
    <path d="M 276.011165 74.892901 
L 279.900685 72.685724 
L 279.332715 77.121646 
z
" clip-path="url(#p636fb0b8f6)" style="fill: #ff0000; stroke: #ff0000; stroke-linecap: round"/>
   </g>
   <g id="patch_10">
    <path d="M 193.914294 216.357226 
Q 236.159537 247.836746 277.508275 278.648225 
" clip-path="url(#p636fb0b8f6)" style="fill: none; stroke: #ff0000; stroke-linecap: round"/>
    <path d="M 275.495869 274.654452 
L 277.508275 278.648225 
L 273.105813 277.861886 
z
" clip-path="url(#p636fb0b8f6)" style="fill: #ff0000; stroke: #ff0000; stroke-linecap: round"/>
   </g>
   <g id="patch_11">
    <path d="M 291.123552 278.038387 
Q 334.540006 229.509996 377.210996 181.814841 
" clip-path="url(#p636fb0b8f6)" style="fill: none; stroke: #ff0000; stroke-linecap: round"/>
    <path d="M 373.053403 183.462392 
L 377.210996 181.814841 
L 376.034481 186.129446 
z
" clip-path="url(#p636fb0b8f6)" style="fill: #ff0000; stroke: #ff0000; stroke-linecap: round"/>
   </g>
   <g id="patch_12">
    <path d="M 190.505154 276.588671 
Q 236.159841 174.528356 281.357992 73.488617 
" clip-path="url(#p636fb0b8f6)" style="fill: none; stroke: #ff0000; stroke-linecap: round"/>
    <path d="M 277.898981 76.323267 
L 281.357992 73.488617 
L 281.550306 77.956616 
z
" clip-path="url(#p636fb0b8f6)" style="fill: #ff0000; stroke: #ff0000; stroke-linecap: round"/>
   </g>
   <g id="patch_13">
    <path d="M 191.796154 277.298987 
Q 236.159896 211.1827 279.900685 145.994814 
" clip-path="url(#p636fb0b8f6)" style="fill: none; stroke: #ff0000; stroke-linecap: round"/>
    <path d="M 276.011165 148.201991 
L 279.900685 145.994814 
L 279.332715 150.430737 
z
" clip-path="url(#p636fb0b8f6)" style="fill: #ff0000; stroke: #ff0000; stroke-linecap: round"/>
   </g>
   <g id="patch_14">
    <path d="M 195.631623 284.491636 
Q 236.160722 284.491636 275.571786 284.491636 
" clip-path="url(#p636fb0b8f6)" style="fill: none; stroke: #ff0000; stroke-linecap: round"/>
    <path d="M 271.571786 282.491636 
L 275.571786 284.491636 
L 271.571786 286.491636 
z
" clip-path="url(#p636fb0b8f6)" style="fill: #ff0000; stroke: #ff0000; stroke-linecap: round"/>
   </g>
   <g id="patch_15">
    <path d="M 94.363222 168.074751 
Q 137.779676 119.54636 180.450665 71.851205 
" clip-path="url(#p636fb0b8f6)" style="fill: none; stroke: #ff0000; stroke-linecap: round"/>
    <path d="M 176.293073 73.498756 
L 180.450665 71.851205 
L 179.274151 76.16581 
z
" clip-path="url(#p636fb0b8f6)" style="fill: #ff0000; stroke: #ff0000; stroke-linecap: round"/>
   </g>
   <g id="patch_16">
    <path d="M 96.705035 171.504403 
Q 137.778476 156.201233 177.804239 141.288409 
" clip-path="url(#p636fb0b8f6)" style="fill: none; stroke: #ff0000; stroke-linecap: round"/>
    <path d="M 173.357679 140.810804 
L 177.804239 141.288409 
L 174.754219 144.559094 
z
" clip-path="url(#p636fb0b8f6)" style="fill: #ff0000; stroke: #ff0000; stroke-linecap: round"/>
   </g>
   <g id="patch_17">
    <path d="M 96.705035 177.551597 
Q 137.778476 192.854767 177.804239 207.767591 
" clip-path="url(#p636fb0b8f6)" style="fill: none; stroke: #ff0000; stroke-linecap: round"/>
    <path d="M 174.754219 204.496906 
L 177.804239 207.767591 
L 173.357679 208.245196 
z
" clip-path="url(#p636fb0b8f6)" style="fill: #ff0000; stroke: #ff0000; stroke-linecap: round"/>
   </g>
   <g id="patch_18">
    <path d="M 94.363222 180.981249 
Q 137.779676 229.50964 180.450665 277.204795 
" clip-path="url(#p636fb0b8f6)" style="fill: none; stroke: #ff0000; stroke-linecap: round"/>
    <path d="M 179.274151 272.89019 
L 180.450665 277.204795 
L 176.293073 275.557244 
z
" clip-path="url(#p636fb0b8f6)" style="fill: #ff0000; stroke: #ff0000; stroke-linecap: round"/>
   </g>
   <g id="text_1">
    <g id="patch_19">
     <path d="M 228.925138 105.603887 
L 234.026963 109.405569 
Q 236.432539 111.198111 238.225081 108.792536 
L 244.007895 101.032049 
Q 245.800437 98.626473 243.394862 96.833931 
L 238.293037 93.032249 
Q 235.887461 91.239707 234.094919 93.645283 
L 228.312105 101.40577 
Q 226.519563 103.811345 228.925138 105.603887 
z
" clip-path="url(#p636fb0b8f6)" style="fill: #ffffff; stroke: #ffffff; stroke-linejoin: miter"/>
    </g>
    <g clip-path="url(#p636fb0b8f6)">
     <!-- 1 -->
     <g style="fill: #008000" transform="translate(231.960323 101.530696) rotate(-323.307947) scale(0.1 -0.1)">
      <defs>
       <path id="DejaVuSans-31" d="M 794 531 
L 1825 531 
L 1825 4091 
L 703 3866 
L 703 4441 
L 1819 4666 
L 2450 4666 
L 2450 531 
L 3481 531 
L 3481 0 
L 794 0 
L 794 531 
z
" transform="scale(0.015625)"/>
      </defs>
      <use xlink:href="#DejaVuSans-31"/>
     </g>
    </g>
   </g>
   <g id="text_2">
    <g id="patch_20">
     <path d="M 326.57681 122.402094 
L 330.819093 127.14387 
Q 332.819383 129.379679 335.055191 127.379388 
L 342.268002 120.926369 
Q 344.50381 118.926078 342.50352 116.69027 
L 338.261238 111.948493 
Q 336.260948 109.712685 334.025139 111.712975 
L 326.812328 118.165995 
Q 324.57652 120.166285 326.57681 122.402094 
z
" clip-path="url(#p636fb0b8f6)" style="fill: #ffffff; stroke: #ffffff; stroke-linejoin: miter"/>
    </g>
    <g clip-path="url(#p636fb0b8f6)">
     <!-- 2 -->
     <g style="fill: #008000" transform="translate(330.362546 119.015144) rotate(-311.817753) scale(0.1 -0.1)">
      <defs>
       <path id="DejaVuSans-32" d="M 1228 531 
L 3431 531 
L 3431 0 
L 469 0 
L 469 531 
Q 828 903 1448 1529 
Q 2069 2156 2228 2338 
Q 2531 2678 2651 2914 
Q 2772 3150 2772 3378 
Q 2772 3750 2511 3984 
Q 2250 4219 1831 4219 
Q 1534 4219 1204 4116 
Q 875 4013 500 3803 
L 500 4441 
Q 881 4594 1212 4672 
Q 1544 4750 1819 4750 
Q 2544 4750 2975 4387 
Q 3406 4025 3406 3419 
Q 3406 3131 3298 2873 
Q 3191 2616 2906 2266 
Q 2828 2175 2409 1742 
Q 1991 1309 1228 531 
z
" transform="scale(0.015625)"/>
      </defs>
      <use xlink:href="#DejaVuSans-32"/>
     </g>
    </g>
   </g>
   <g id="text_3">
    <g id="patch_21">
     <path d="M 328.822212 162.435811 
L 334.784335 164.657182 
Q 337.595553 165.704588 338.642958 162.89337 
L 342.02193 153.824266 
Q 343.069336 151.013049 340.258118 149.965644 
L 334.295995 147.744272 
Q 331.484778 146.696867 330.437373 149.508084 
L 327.0584 158.577188 
Q 326.010995 161.388406 328.822212 162.435811 
z
" clip-path="url(#p636fb0b8f6)" style="fill: #ffffff; stroke: #ffffff; stroke-linejoin: miter"/>
    </g>
    <g clip-path="url(#p636fb0b8f6)">
     <!-- 3 -->
     <g style="fill: #008000" transform="translate(330.595709 157.675776) rotate(-339.56558) scale(0.1 -0.1)">
      <defs>
       <path id="DejaVuSans-33" d="M 2597 2516 
Q 3050 2419 3304 2112 
Q 3559 1806 3559 1356 
Q 3559 666 3084 287 
Q 2609 -91 1734 -91 
Q 1441 -91 1130 -33 
Q 819 25 488 141 
L 488 750 
Q 750 597 1062 519 
Q 1375 441 1716 441 
Q 2309 441 2620 675 
Q 2931 909 2931 1356 
Q 2931 1769 2642 2001 
Q 2353 2234 1838 2234 
L 1294 2234 
L 1294 2753 
L 1863 2753 
Q 2328 2753 2575 2939 
Q 2822 3125 2822 3475 
Q 2822 3834 2567 4026 
Q 2313 4219 1838 4219 
Q 1578 4219 1281 4162 
Q 984 4106 628 3988 
L 628 4550 
Q 988 4650 1302 4700 
Q 1616 4750 1894 4750 
Q 2613 4750 3031 4423 
Q 3450 4097 3450 3541 
Q 3450 3153 3228 2886 
Q 3006 2619 2597 2516 
z
" transform="scale(0.015625)"/>
      </defs>
      <use xlink:href="#DejaVuSans-33"/>
     </g>
    </g>
   </g>
   <g id="text_4">
    <g id="patch_22">
     <path d="M 232.97875 145.712517 
L 239.34125 145.712517 
Q 242.34125 145.712517 242.34125 142.712517 
L 242.34125 133.034392 
Q 242.34125 130.034392 239.34125 130.034392 
L 232.97875 130.034392 
Q 229.97875 130.034392 229.97875 133.034392 
L 229.97875 142.712517 
Q 229.97875 145.712517 232.97875 145.712517 
z
" clip-path="url(#p636fb0b8f6)" style="fill: #ffffff; stroke: #ffffff; stroke-linejoin: miter"/>
    </g>
    <g clip-path="url(#p636fb0b8f6)">
     <!-- 1 -->
     <g style="fill: #008000" transform="translate(232.97875 140.63283) scale(0.1 -0.1)">
      <use xlink:href="#DejaVuSans-31"/>
     </g>
    </g>
   </g>
   <g id="text_5">
    <g id="patch_23">
     <path d="M 228.925138 178.912978 
L 234.026963 182.71466 
Q 236.432539 184.507202 238.225081 182.101627 
L 244.007895 174.341139 
Q 245.800437 171.935564 243.394862 170.143022 
L 238.293037 166.34134 
Q 235.887461 164.548798 234.094919 166.954373 
L 228.312105 174.714861 
Q 226.519563 177.120436 228.925138 178.912978 
z
" clip-path="url(#p636fb0b8f6)" style="fill: #ffffff; stroke: #ffffff; stroke-linejoin: miter"/>
    </g>
    <g clip-path="url(#p636fb0b8f6)">
     <!-- 1 -->
     <g style="fill: #008000" transform="translate(231.960323 174.839787) rotate(-323.307947) scale(0.1 -0.1)">
      <use xlink:href="#DejaVuSans-31"/>
     </g>
    </g>
   </g>
   <g id="text_6">
    <g id="patch_24">
     <path d="M 334.295995 201.311728 
L 340.258118 199.090356 
Q 343.069336 198.042951 342.02193 195.231734 
L 338.642958 186.16263 
Q 337.595553 183.351412 334.784335 184.398818 
L 328.822212 186.620189 
Q 326.010995 187.667594 327.0584 190.478812 
L 330.437373 199.547916 
Q 331.484778 202.359133 334.295995 201.311728 
z
" clip-path="url(#p636fb0b8f6)" style="fill: #ffffff; stroke: #ffffff; stroke-linejoin: miter"/>
    </g>
    <g clip-path="url(#p636fb0b8f6)">
     <!-- 1 -->
     <g style="fill: #008000" transform="translate(332.522498 196.551693) rotate(-20.43442) scale(0.1 -0.1)">
      <use xlink:href="#DejaVuSans-31"/>
     </g>
    </g>
   </g>
   <g id="text_7">
    <g id="patch_25">
     <path d="M 240.89691 144.882944 
L 244.442008 139.599603 
Q 246.113568 137.108441 243.622405 135.436882 
L 235.585812 130.044362 
Q 233.094649 128.372803 231.42309 130.863966 
L 227.877992 136.147306 
Q 226.206432 138.638468 228.697595 140.310027 
L 236.734188 145.702547 
Q 239.225351 147.374106 240.89691 144.882944 
z
" clip-path="url(#p636fb0b8f6)" style="fill: #ffffff; stroke: #ffffff; stroke-linejoin: miter"/>
    </g>
    <g clip-path="url(#p636fb0b8f6)">
     <!-- 1 -->
     <g style="fill: #008000" transform="translate(236.678801 142.052611) rotate(-56.13856) scale(0.1 -0.1)">
      <use xlink:href="#DejaVuSans-31"/>
     </g>
    </g>
   </g>
   <g id="text_8">
    <g id="patch_26">
     <path d="M 228.925138 252.222069 
L 234.026963 256.023751 
Q 236.432539 257.816293 238.225081 255.410717 
L 244.007895 247.65023 
Q 245.800437 245.244655 243.394862 243.452113 
L 238.293037 239.650431 
Q 235.887461 237.857889 234.094919 240.263464 
L 228.312105 248.023951 
Q 226.519563 250.429527 228.925138 252.222069 
z
" clip-path="url(#p636fb0b8f6)" style="fill: #ffffff; stroke: #ffffff; stroke-linejoin: miter"/>
    </g>
    <g clip-path="url(#p636fb0b8f6)">
     <!-- 1 -->
     <g style="fill: #008000" transform="translate(231.960323 248.148878) rotate(-323.307947) scale(0.1 -0.1)">
      <use xlink:href="#DejaVuSans-31"/>
     </g>
    </g>
   </g>
   <g id="text_9">
    <g id="patch_27">
     <path d="M 338.261238 237.107507 
L 342.50352 232.36573 
Q 344.50381 230.129922 342.268002 228.129631 
L 335.055191 221.676612 
Q 332.819383 219.676321 330.819093 221.91213 
L 326.57681 226.653906 
Q 324.57652 228.889715 326.812328 230.890005 
L 334.025139 237.343025 
Q 336.260948 239.343315 338.261238 237.107507 
z
" clip-path="url(#p636fb0b8f6)" style="fill: #ffffff; stroke: #ffffff; stroke-linejoin: miter"/>
    </g>
    <g clip-path="url(#p636fb0b8f6)">
     <!-- 2 -->
     <g style="fill: #008000" transform="translate(334.475502 233.720557) rotate(-48.182247) scale(0.1 -0.1)">
      <use xlink:href="#DejaVuSans-32"/>
     </g>
    </g>
   </g>
   <g id="text_10">
    <g id="patch_28">
     <path d="M 242.016718 180.632925 
L 244.614763 174.825036 
Q 245.839775 172.086543 243.101281 170.861531 
L 234.266787 166.909593 
Q 231.528294 165.684582 230.303282 168.423075 
L 227.705237 174.230964 
Q 226.480225 176.969457 229.218719 178.194469 
L 238.053213 182.146407 
Q 240.791706 183.371418 242.016718 180.632925 
z
" clip-path="url(#p636fb0b8f6)" style="fill: #ffffff; stroke: #ffffff; stroke-linejoin: miter"/>
    </g>
    <g clip-path="url(#p636fb0b8f6)">
     <!-- 1 -->
     <g style="fill: #008000" transform="translate(237.379821 178.5587) rotate(-65.899578) scale(0.1 -0.1)">
      <use xlink:href="#DejaVuSans-31"/>
     </g>
    </g>
   </g>
   <g id="text_11">
    <g id="patch_29">
     <path d="M 240.89691 218.192034 
L 244.442008 212.908694 
Q 246.113568 210.417532 243.622405 208.745973 
L 235.585812 203.353453 
Q 233.094649 201.681894 231.42309 204.173056 
L 227.877992 209.456397 
Q 226.206432 211.947559 228.697595 213.619118 
L 236.734188 219.011638 
Q 239.225351 220.683197 240.89691 218.192034 
z
" clip-path="url(#p636fb0b8f6)" style="fill: #ffffff; stroke: #ffffff; stroke-linejoin: miter"/>
    </g>
    <g clip-path="url(#p636fb0b8f6)">
     <!-- 1 -->
     <g style="fill: #008000" transform="translate(236.678801 215.361702) rotate(-56.13856) scale(0.1 -0.1)">
      <use xlink:href="#DejaVuSans-31"/>
     </g>
    </g>
   </g>
   <g id="text_12">
    <g id="patch_30">
     <path d="M 232.97875 292.330699 
L 239.34125 292.330699 
Q 242.34125 292.330699 242.34125 289.330699 
L 242.34125 279.652574 
Q 242.34125 276.652574 239.34125 276.652574 
L 232.97875 276.652574 
Q 229.97875 276.652574 229.97875 279.652574 
L 229.97875 289.330699 
Q 229.97875 292.330699 232.97875 292.330699 
z
" clip-path="url(#p636fb0b8f6)" style="fill: #ffffff; stroke: #ffffff; stroke-linejoin: miter"/>
    </g>
    <g clip-path="url(#p636fb0b8f6)">
     <!-- 1 -->
     <g style="fill: #008000" transform="translate(232.97875 287.251011) scale(0.1 -0.1)">
      <use xlink:href="#DejaVuSans-31"/>
     </g>
    </g>
   </g>
   <g id="text_13">
    <g id="patch_31">
     <path d="M 141.500907 127.14387 
L 145.74319 122.402094 
Q 147.74348 120.166285 145.507672 118.165995 
L 138.294861 111.712975 
Q 136.059052 109.712685 134.058762 111.948493 
L 129.81648 116.69027 
Q 127.81619 118.926078 130.051998 120.926369 
L 137.264809 127.379388 
Q 139.500617 129.379679 141.500907 127.14387 
z
" clip-path="url(#p636fb0b8f6)" style="fill: #ffffff; stroke: #ffffff; stroke-linejoin: miter"/>
    </g>
    <g clip-path="url(#p636fb0b8f6)">
     <!-- 1 -->
     <g style="fill: #008000" transform="translate(137.715171 123.756921) rotate(-48.182247) scale(0.1 -0.1)">
      <use xlink:href="#DejaVuSans-31"/>
     </g>
    </g>
   </g>
   <g id="text_14">
    <g id="patch_32">
     <path d="M 137.535665 164.657182 
L 143.497788 162.435811 
Q 146.309005 161.388406 145.2616 158.577188 
L 141.882627 149.508084 
Q 140.835222 146.696867 138.024005 147.744272 
L 132.061882 149.965644 
Q 129.250664 151.013049 130.29807 153.824266 
L 133.677042 162.89337 
Q 134.724447 165.704588 137.535665 164.657182 
z
" clip-path="url(#p636fb0b8f6)" style="fill: #ffffff; stroke: #ffffff; stroke-linejoin: miter"/>
    </g>
    <g clip-path="url(#p636fb0b8f6)">
     <!-- 2 -->
     <g style="fill: #008000" transform="translate(135.762168 159.897147) rotate(-20.43442) scale(0.1 -0.1)">
      <use xlink:href="#DejaVuSans-32"/>
     </g>
    </g>
   </g>
   <g id="text_15">
    <g id="patch_33">
     <path d="M 132.061882 199.090356 
L 138.024005 201.311728 
Q 140.835222 202.359133 141.882627 199.547916 
L 145.2616 190.478812 
Q 146.309005 187.667594 143.497788 186.620189 
L 137.535665 184.398818 
Q 134.724447 183.351412 133.677042 186.16263 
L 130.29807 195.231734 
Q 129.250664 198.042951 132.061882 199.090356 
z
" clip-path="url(#p636fb0b8f6)" style="fill: #ffffff; stroke: #ffffff; stroke-linejoin: miter"/>
    </g>
    <g clip-path="url(#p636fb0b8f6)">
     <!-- 2 -->
     <g style="fill: #008000" transform="translate(133.835379 194.330321) rotate(-339.56558) scale(0.1 -0.1)">
      <use xlink:href="#DejaVuSans-32"/>
     </g>
    </g>
   </g>
   <g id="text_16">
    <g id="patch_34">
     <path d="M 129.81648 232.36573 
L 134.058762 237.107507 
Q 136.059052 239.343315 138.294861 237.343025 
L 145.507672 230.890005 
Q 147.74348 228.889715 145.74319 226.653906 
L 141.500907 221.91213 
Q 139.500617 219.676321 137.264809 221.676612 
L 130.051998 228.129631 
Q 127.81619 230.129922 129.81648 232.36573 
z
" clip-path="url(#p636fb0b8f6)" style="fill: #ffffff; stroke: #ffffff; stroke-linejoin: miter"/>
    </g>
    <g clip-path="url(#p636fb0b8f6)">
     <!-- 3 -->
     <g style="fill: #008000" transform="translate(133.602216 228.97878) rotate(-311.817753) scale(0.1 -0.1)">
      <use xlink:href="#DejaVuSans-33"/>
     </g>
    </g>
   </g>
   <g id="PathCollection_1">
    <defs>
     <path id="m275d75a2a3" d="M 0 8.660254 
C 2.296726 8.660254 4.499694 7.747755 6.123724 6.123724 
C 7.747755 4.499694 8.660254 2.296726 8.660254 0 
C 8.660254 -2.296726 7.747755 -4.499694 6.123724 -6.123724 
C 4.499694 -7.747755 2.296726 -8.660254 0 -8.660254 
C -2.296726 -8.660254 -4.499694 -7.747755 -6.123724 -6.123724 
C -7.747755 -4.499694 -8.660254 -2.296726 -8.660254 0 
C -8.660254 2.296726 -7.747755 4.499694 -6.123724 6.123724 
C -4.499694 7.747755 -2.296726 8.660254 0 8.660254 
z
" style="stroke: #1f78b4"/>
    </defs>
    <g clip-path="url(#p636fb0b8f6)">
     <use xlink:href="#m275d75a2a3" x="186.969917" y="64.564364" style="fill: #1f78b4; stroke: #1f78b4"/>
     <use xlink:href="#m275d75a2a3" x="285.350083" y="64.564364" style="fill: #1f78b4; stroke: #1f78b4"/>
     <use xlink:href="#m275d75a2a3" x="285.350083" y="137.873455" style="fill: #1f78b4; stroke: #1f78b4"/>
     <use xlink:href="#m275d75a2a3" x="186.969917" y="137.873455" style="fill: #1f78b4; stroke: #1f78b4"/>
     <use xlink:href="#m275d75a2a3" x="285.350083" y="211.182545" style="fill: #1f78b4; stroke: #1f78b4"/>
     <use xlink:href="#m275d75a2a3" x="186.969917" y="211.182545" style="fill: #1f78b4; stroke: #1f78b4"/>
     <use xlink:href="#m275d75a2a3" x="285.350083" y="284.491636" style="fill: #1f78b4; stroke: #1f78b4"/>
     <use xlink:href="#m275d75a2a3" x="186.969917" y="284.491636" style="fill: #1f78b4; stroke: #1f78b4"/>
     <use xlink:href="#m275d75a2a3" x="88.589752" y="174.528" style="fill: #1f78b4; stroke: #1f78b4"/>
     <use xlink:href="#m275d75a2a3" x="383.730248" y="174.528" style="fill: #1f78b4; stroke: #1f78b4"/>
    </g>
   </g>
   <g id="text_17">
    <g clip-path="url(#p636fb0b8f6)">
     <!-- 0 -->
     <g transform="translate(183.152417 67.875614) scale(0.12 -0.12)">
      <defs>
       <path id="DejaVuSans-30" d="M 2034 4250 
Q 1547 4250 1301 3770 
Q 1056 3291 1056 2328 
Q 1056 1369 1301 889 
Q 1547 409 2034 409 
Q 2525 409 2770 889 
Q 3016 1369 3016 2328 
Q 3016 3291 2770 3770 
Q 2525 4250 2034 4250 
z
M 2034 4750 
Q 2819 4750 3233 4129 
Q 3647 3509 3647 2328 
Q 3647 1150 3233 529 
Q 2819 -91 2034 -91 
Q 1250 -91 836 529 
Q 422 1150 422 2328 
Q 422 3509 836 4129 
Q 1250 4750 2034 4750 
z
" transform="scale(0.015625)"/>
      </defs>
      <use xlink:href="#DejaVuSans-30"/>
     </g>
    </g>
   </g>
   <g id="text_18">
    <g clip-path="url(#p636fb0b8f6)">
     <!-- 4 -->
     <g transform="translate(281.532583 67.875614) scale(0.12 -0.12)">
      <defs>
       <path id="DejaVuSans-34" d="M 2419 4116 
L 825 1625 
L 2419 1625 
L 2419 4116 
z
M 2253 4666 
L 3047 4666 
L 3047 1625 
L 3713 1625 
L 3713 1100 
L 3047 1100 
L 3047 0 
L 2419 0 
L 2419 1100 
L 313 1100 
L 313 1709 
L 2253 4666 
z
" transform="scale(0.015625)"/>
      </defs>
      <use xlink:href="#DejaVuSans-34"/>
     </g>
    </g>
   </g>
   <g id="text_19">
    <g clip-path="url(#p636fb0b8f6)">
     <!-- 5 -->
     <g transform="translate(281.532583 141.184705) scale(0.12 -0.12)">
      <defs>
       <path id="DejaVuSans-35" d="M 691 4666 
L 3169 4666 
L 3169 4134 
L 1269 4134 
L 1269 2991 
Q 1406 3038 1543 3061 
Q 1681 3084 1819 3084 
Q 2600 3084 3056 2656 
Q 3513 2228 3513 1497 
Q 3513 744 3044 326 
Q 2575 -91 1722 -91 
Q 1428 -91 1123 -41 
Q 819 9 494 109 
L 494 744 
Q 775 591 1075 516 
Q 1375 441 1709 441 
Q 2250 441 2565 725 
Q 2881 1009 2881 1497 
Q 2881 1984 2565 2268 
Q 2250 2553 1709 2553 
Q 1456 2553 1204 2497 
Q 953 2441 691 2322 
L 691 4666 
z
" transform="scale(0.015625)"/>
      </defs>
      <use xlink:href="#DejaVuSans-35"/>
     </g>
    </g>
   </g>
   <g id="text_20">
    <g clip-path="url(#p636fb0b8f6)">
     <!-- 1 -->
     <g transform="translate(183.152417 141.184705) scale(0.12 -0.12)">
      <use xlink:href="#DejaVuSans-31"/>
     </g>
    </g>
   </g>
   <g id="text_21">
    <g clip-path="url(#p636fb0b8f6)">
     <!-- 6 -->
     <g transform="translate(281.532583 214.493795) scale(0.12 -0.12)">
      <defs>
       <path id="DejaVuSans-36" d="M 2113 2584 
Q 1688 2584 1439 2293 
Q 1191 2003 1191 1497 
Q 1191 994 1439 701 
Q 1688 409 2113 409 
Q 2538 409 2786 701 
Q 3034 994 3034 1497 
Q 3034 2003 2786 2293 
Q 2538 2584 2113 2584 
z
M 3366 4563 
L 3366 3988 
Q 3128 4100 2886 4159 
Q 2644 4219 2406 4219 
Q 1781 4219 1451 3797 
Q 1122 3375 1075 2522 
Q 1259 2794 1537 2939 
Q 1816 3084 2150 3084 
Q 2853 3084 3261 2657 
Q 3669 2231 3669 1497 
Q 3669 778 3244 343 
Q 2819 -91 2113 -91 
Q 1303 -91 875 529 
Q 447 1150 447 2328 
Q 447 3434 972 4092 
Q 1497 4750 2381 4750 
Q 2619 4750 2861 4703 
Q 3103 4656 3366 4563 
z
" transform="scale(0.015625)"/>
      </defs>
      <use xlink:href="#DejaVuSans-36"/>
     </g>
    </g>
   </g>
   <g id="text_22">
    <g clip-path="url(#p636fb0b8f6)">
     <!-- 2 -->
     <g transform="translate(183.152417 214.493795) scale(0.12 -0.12)">
      <use xlink:href="#DejaVuSans-32"/>
     </g>
    </g>
   </g>
   <g id="text_23">
    <g clip-path="url(#p636fb0b8f6)">
     <!-- 7 -->
     <g transform="translate(281.532583 287.802886) scale(0.12 -0.12)">
      <defs>
       <path id="DejaVuSans-37" d="M 525 4666 
L 3525 4666 
L 3525 4397 
L 1831 0 
L 1172 0 
L 2766 4134 
L 525 4134 
L 525 4666 
z
" transform="scale(0.015625)"/>
      </defs>
      <use xlink:href="#DejaVuSans-37"/>
     </g>
    </g>
   </g>
   <g id="text_24">
    <g clip-path="url(#p636fb0b8f6)">
     <!-- 3 -->
     <g transform="translate(183.152417 287.802886) scale(0.12 -0.12)">
      <use xlink:href="#DejaVuSans-33"/>
     </g>
    </g>
   </g>
   <g id="text_25">
    <g clip-path="url(#p636fb0b8f6)">
     <!-- 8 -->
     <g transform="translate(84.772252 177.83925) scale(0.12 -0.12)">
      <defs>
       <path id="DejaVuSans-38" d="M 2034 2216 
Q 1584 2216 1326 1975 
Q 1069 1734 1069 1313 
Q 1069 891 1326 650 
Q 1584 409 2034 409 
Q 2484 409 2743 651 
Q 3003 894 3003 1313 
Q 3003 1734 2745 1975 
Q 2488 2216 2034 2216 
z
M 1403 2484 
Q 997 2584 770 2862 
Q 544 3141 544 3541 
Q 544 4100 942 4425 
Q 1341 4750 2034 4750 
Q 2731 4750 3128 4425 
Q 3525 4100 3525 3541 
Q 3525 3141 3298 2862 
Q 3072 2584 2669 2484 
Q 3125 2378 3379 2068 
Q 3634 1759 3634 1313 
Q 3634 634 3220 271 
Q 2806 -91 2034 -91 
Q 1263 -91 848 271 
Q 434 634 434 1313 
Q 434 1759 690 2068 
Q 947 2378 1403 2484 
z
M 1172 3481 
Q 1172 3119 1398 2916 
Q 1625 2713 2034 2713 
Q 2441 2713 2670 2916 
Q 2900 3119 2900 3481 
Q 2900 3844 2670 4047 
Q 2441 4250 2034 4250 
Q 1625 4250 1398 4047 
Q 1172 3844 1172 3481 
z
" transform="scale(0.015625)"/>
      </defs>
      <use xlink:href="#DejaVuSans-38"/>
     </g>
    </g>
   </g>
   <g id="text_26">
    <g clip-path="url(#p636fb0b8f6)">
     <!-- 9 -->
     <g transform="translate(379.912748 177.83925) scale(0.12 -0.12)">
      <defs>
       <path id="DejaVuSans-39" d="M 703 97 
L 703 672 
Q 941 559 1184 500 
Q 1428 441 1663 441 
Q 2288 441 2617 861 
Q 2947 1281 2994 2138 
Q 2813 1869 2534 1725 
Q 2256 1581 1919 1581 
Q 1219 1581 811 2004 
Q 403 2428 403 3163 
Q 403 3881 828 4315 
Q 1253 4750 1959 4750 
Q 2769 4750 3195 4129 
Q 3622 3509 3622 2328 
Q 3622 1225 3098 567 
Q 2575 -91 1691 -91 
Q 1453 -91 1209 -44 
Q 966 3 703 97 
z
M 1959 2075 
Q 2384 2075 2632 2365 
Q 2881 2656 2881 3163 
Q 2881 3666 2632 3958 
Q 2384 4250 1959 4250 
Q 1534 4250 1286 3958 
Q 1038 3666 1038 3163 
Q 1038 2656 1286 2365 
Q 1534 2075 1959 2075 
z
" transform="scale(0.015625)"/>
      </defs>
      <use xlink:href="#DejaVuSans-39"/>
     </g>
    </g>
   </g>
  </g>
 </g>
 <defs>
  <clipPath id="p636fb0b8f6">
   <rect x="57.6" y="41.472" width="357.12" height="266.112"/>
  </clipPath>
 </defs>
</svg>
