<?xml version="1.0" encoding="utf-8" standalone="no"?>
<!DOCTYPE svg PUBLIC "-//W3C//DTD SVG 1.1//EN"
  "http://www.w3.org/Graphics/SVG/1.1/DTD/svg11.dtd">
<svg xmlns:xlink="http://www.w3.org/1999/xlink" width="460.8pt" height="345.6pt" viewBox="0 0 460.8 345.6" xmlns="http://www.w3.org/2000/svg" version="1.1">
 <metadata>
  <rdf:RDF xmlns:dc="http://purl.org/dc/elements/1.1/" xmlns:cc="http://creativecommons.org/ns#" xmlns:rdf="http://www.w3.org/1999/02/22-rdf-syntax-ns#">
   <cc:Work>
    <dc:type rdf:resource="http://purl.org/dc/dcmitype/StillImage"/>
    <dc:date>2023-11-18T19:09:29.526291</dc:date>
    <dc:format>image/svg+xml</dc:format>
    <dc:creator>
     <cc:Agent>
      <dc:title>Matplotlib v3.8.0, https://matplotlib.org/</dc:title>
     </cc:Agent>
    </dc:creator>
   </cc:Work>
  </rdf:RDF>
 </metadata>
 <defs>
  <style type="text/css">*{stroke-linejoin: round; stroke-linecap: butt}</style>
 </defs>
 <g id="figure_1">
  <g id="patch_1">
   <path d="M 0 345.6 
L 460.8 345.6 
L 460.8 0 
L 0 0 
z
" style="fill: #ffffff"/>
  </g>
  <g id="axes_1">
   <g id="patch_2">
    <path d="M 195.631623 64.564364 
Q 236.160722 64.564364 275.571786 64.564364 
" clip-path="url(#pf33905e7b4)" style="fill: none; stroke: #000000; stroke-linecap: round"/>
    <path d="M 271.571786 62.564364 
L 275.571786 64.564364 
L 271.571786 66.564364 
z
" clip-path="url(#pf33905e7b4)" style="stroke: #000000; stroke-linecap: round"/>
   </g>
   <g id="patch_3">
    <path d="M 193.914294 69.739044 
Q 236.159537 101.218564 277.508275 132.030043 
" clip-path="url(#pf33905e7b4)" style="fill: none; stroke: #000000; stroke-linecap: round"/>
    <path d="M 275.495869 128.03627 
L 277.508275 132.030043 
L 273.105813 131.243704 
z
" clip-path="url(#pf33905e7b4)" style="stroke: #000000; stroke-linecap: round"/>
   </g>
   <g id="patch_4">
    <path d="M 291.123552 71.017613 
Q 334.540006 119.546004 377.210996 167.241159 
" clip-path="url(#pf33905e7b4)" style="fill: none; stroke: #000000; stroke-linecap: round"/>
    <path d="M 376.034481 162.926554 
L 377.210996 167.241159 
L 373.053403 165.593608 
z
" clip-path="url(#pf33905e7b4)" style="stroke: #000000; stroke-linecap: round"/>
   </g>
   <g id="patch_5">
    <path d="M 293.465365 140.897052 
Q 334.538807 156.200221 374.56457 171.113046 
" clip-path="url(#pf33905e7b4)" style="fill: none; stroke: #000000; stroke-linecap: round"/>
    <path d="M 371.51455 167.842361 
L 374.56457 171.113046 
L 370.11801 171.59065 
z
" clip-path="url(#pf33905e7b4)" style="stroke: #000000; stroke-linecap: round"/>
   </g>
   <g id="patch_6">
    <path d="M 195.631623 137.873455 
Q 236.160722 137.873455 275.571786 137.873455 
" clip-path="url(#pf33905e7b4)" style="fill: none; stroke: #000000; stroke-linecap: round"/>
    <path d="M 271.571786 135.873455 
L 275.571786 137.873455 
L 271.571786 139.873455 
z
" clip-path="url(#pf33905e7b4)" style="stroke: #000000; stroke-linecap: round"/>
   </g>
   <g id="patch_7">
    <path d="M 193.914294 143.048135 
Q 236.159537 174.527655 277.508275 205.339134 
" clip-path="url(#pf33905e7b4)" style="fill: none; stroke: #000000; stroke-linecap: round"/>
    <path d="M 275.495869 201.345361 
L 277.508275 205.339134 
L 273.105813 204.552795 
z
" clip-path="url(#pf33905e7b4)" style="stroke: #000000; stroke-linecap: round"/>
   </g>
   <g id="patch_8">
    <path d="M 293.465365 208.158948 
Q 334.538807 192.855779 374.56457 177.942954 
" clip-path="url(#pf33905e7b4)" style="fill: none; stroke: #000000; stroke-linecap: round"/>
    <path d="M 370.11801 177.46535 
L 374.56457 177.942954 
L 371.51455 181.213639 
z
" clip-path="url(#pf33905e7b4)" style="stroke: #000000; stroke-linecap: round"/>
   </g>
   <g id="patch_9">
    <path d="M 191.796154 203.989896 
Q 236.159896 137.873609 279.900685 72.685724 
" clip-path="url(#pf33905e7b4)" style="fill: none; stroke: #000000; stroke-linecap: round"/>
    <path d="M 276.011165 74.892901 
L 279.900685 72.685724 
L 279.332715 77.121646 
z
" clip-path="url(#pf33905e7b4)" style="stroke: #000000; stroke-linecap: round"/>
   </g>
   <g id="patch_10">
    <path d="M 193.914294 216.357226 
Q 236.159537 247.836746 277.508275 278.648225 
" clip-path="url(#pf33905e7b4)" style="fill: none; stroke: #000000; stroke-linecap: round"/>
    <path d="M 275.495869 274.654452 
L 277.508275 278.648225 
L 273.105813 277.861886 
z
" clip-path="url(#pf33905e7b4)" style="stroke: #000000; stroke-linecap: round"/>
   </g>
   <g id="patch_11">
    <path d="M 291.123552 278.038387 
Q 334.540006 229.509996 377.210996 181.814841 
" clip-path="url(#pf33905e7b4)" style="fill: none; stroke: #000000; stroke-linecap: round"/>
    <path d="M 373.053403 183.462392 
L 377.210996 181.814841 
L 376.034481 186.129446 
z
" clip-path="url(#pf33905e7b4)" style="stroke: #000000; stroke-linecap: round"/>
   </g>
   <g id="patch_12">
    <path d="M 190.505154 276.588671 
Q 236.159841 174.528356 281.357992 73.488617 
" clip-path="url(#pf33905e7b4)" style="fill: none; stroke: #000000; stroke-linecap: round"/>
    <path d="M 277.898981 76.323267 
L 281.357992 73.488617 
L 281.550306 77.956616 
z
" clip-path="url(#pf33905e7b4)" style="stroke: #000000; stroke-linecap: round"/>
   </g>
   <g id="patch_13">
    <path d="M 191.796154 277.298987 
Q 236.159896 211.1827 279.900685 145.994814 
" clip-path="url(#pf33905e7b4)" style="fill: none; stroke: #000000; stroke-linecap: round"/>
    <path d="M 276.011165 148.201991 
L 279.900685 145.994814 
L 279.332715 150.430737 
z
" clip-path="url(#pf33905e7b4)" style="stroke: #000000; stroke-linecap: round"/>
   </g>
   <g id="patch_14">
    <path d="M 195.631623 284.491636 
Q 236.160722 284.491636 275.571786 284.491636 
" clip-path="url(#pf33905e7b4)" style="fill: none; stroke: #000000; stroke-linecap: round"/>
    <path d="M 271.571786 282.491636 
L 275.571786 284.491636 
L 271.571786 286.491636 
z
" clip-path="url(#pf33905e7b4)" style="stroke: #000000; stroke-linecap: round"/>
   </g>
   <g id="patch_15">
    <path d="M 94.363222 168.074751 
Q 137.779676 119.54636 180.450665 71.851205 
" clip-path="url(#pf33905e7b4)" style="fill: none; stroke: #000000; stroke-linecap: round"/>
    <path d="M 176.293073 73.498756 
L 180.450665 71.851205 
L 179.274151 76.16581 
z
" clip-path="url(#pf33905e7b4)" style="stroke: #000000; stroke-linecap: round"/>
   </g>
   <g id="patch_16">
    <path d="M 96.705035 171.504403 
Q 137.778476 156.201233 177.804239 141.288409 
" clip-path="url(#pf33905e7b4)" style="fill: none; stroke: #000000; stroke-linecap: round"/>
    <path d="M 173.357679 140.810804 
L 177.804239 141.288409 
L 174.754219 144.559094 
z
" clip-path="url(#pf33905e7b4)" style="stroke: #000000; stroke-linecap: round"/>
   </g>
   <g id="patch_17">
    <path d="M 96.705035 177.551597 
Q 137.778476 192.854767 177.804239 207.767591 
" clip-path="url(#pf33905e7b4)" style="fill: none; stroke: #000000; stroke-linecap: round"/>
    <path d="M 174.754219 204.496906 
L 177.804239 207.767591 
L 173.357679 208.245196 
z
" clip-path="url(#pf33905e7b4)" style="stroke: #000000; stroke-linecap: round"/>
   </g>
   <g id="patch_18">
    <path d="M 94.363222 180.981249 
Q 137.779676 229.50964 180.450665 277.204795 
" clip-path="url(#pf33905e7b4)" style="fill: none; stroke: #000000; stroke-linecap: round"/>
    <path d="M 179.274151 272.89019 
L 180.450665 277.204795 
L 176.293073 275.557244 
z
" clip-path="url(#pf33905e7b4)" style="stroke: #000000; stroke-linecap: round"/>
   </g>
   <g id="PathCollection_1">
    <defs>
     <path id="m5cfbab5ec6" d="M 0 8.660254 
C 2.296726 8.660254 4.499694 7.747755 6.123724 6.123724 
C 7.747755 4.499694 8.660254 2.296726 8.660254 0 
C 8.660254 -2.296726 7.747755 -4.499694 6.123724 -6.123724 
C 4.499694 -7.747755 2.296726 -8.660254 0 -8.660254 
C -2.296726 -8.660254 -4.499694 -7.747755 -6.123724 -6.123724 
C -7.747755 -4.499694 -8.660254 -2.296726 -8.660254 0 
C -8.660254 2.296726 -7.747755 4.499694 -6.123724 6.123724 
C -4.499694 7.747755 -2.296726 8.660254 0 8.660254 
z
" style="stroke: #1f78b4"/>
    </defs>
    <g clip-path="url(#pf33905e7b4)">
     <use xlink:href="#m5cfbab5ec6" x="186.969917" y="64.564364" style="fill: #1f78b4; stroke: #1f78b4"/>
     <use xlink:href="#m5cfbab5ec6" x="285.350083" y="64.564364" style="fill: #1f78b4; stroke: #1f78b4"/>
     <use xlink:href="#m5cfbab5ec6" x="285.350083" y="137.873455" style="fill: #1f78b4; stroke: #1f78b4"/>
     <use xlink:href="#m5cfbab5ec6" x="186.969917" y="137.873455" style="fill: #1f78b4; stroke: #1f78b4"/>
     <use xlink:href="#m5cfbab5ec6" x="285.350083" y="211.182545" style="fill: #1f78b4; stroke: #1f78b4"/>
     <use xlink:href="#m5cfbab5ec6" x="186.969917" y="211.182545" style="fill: #1f78b4; stroke: #1f78b4"/>
     <use xlink:href="#m5cfbab5ec6" x="285.350083" y="284.491636" style="fill: #1f78b4; stroke: #1f78b4"/>
     <use xlink:href="#m5cfbab5ec6" x="186.969917" y="284.491636" style="fill: #1f78b4; stroke: #1f78b4"/>
     <use xlink:href="#m5cfbab5ec6" x="88.589752" y="174.528" style="fill: #1f78b4; stroke: #1f78b4"/>
     <use xlink:href="#m5cfbab5ec6" x="383.730248" y="174.528" style="fill: #1f78b4; stroke: #1f78b4"/>
    </g>
   </g>
   <g id="text_1">
    <g clip-path="url(#pf33905e7b4)">
     <!-- p1 -->
     <g transform="translate(179.343355 67.875614) scale(0.12 -0.12)">
      <defs>
       <path id="DejaVuSans-70" d="M 1159 525 
L 1159 -1331 
L 581 -1331 
L 581 3500 
L 1159 3500 
L 1159 2969 
Q 1341 3281 1617 3432 
Q 1894 3584 2278 3584 
Q 2916 3584 3314 3078 
Q 3713 2572 3713 1747 
Q 3713 922 3314 415 
Q 2916 -91 2278 -91 
Q 1894 -91 1617 61 
Q 1341 213 1159 525 
z
M 3116 1747 
Q 3116 2381 2855 2742 
Q 2594 3103 2138 3103 
Q 1681 3103 1420 2742 
Q 1159 2381 1159 1747 
Q 1159 1113 1420 752 
Q 1681 391 2138 391 
Q 2594 391 2855 752 
Q 3116 1113 3116 1747 
z
" transform="scale(0.015625)"/>
       <path id="DejaVuSans-31" d="M 794 531 
L 1825 531 
L 1825 4091 
L 703 3866 
L 703 4441 
L 1819 4666 
L 2450 4666 
L 2450 531 
L 3481 531 
L 3481 0 
L 794 0 
L 794 531 
z
" transform="scale(0.015625)"/>
      </defs>
      <use xlink:href="#DejaVuSans-70"/>
      <use xlink:href="#DejaVuSans-31" x="63.476562"/>
     </g>
    </g>
   </g>
   <g id="text_2">
    <g clip-path="url(#pf33905e7b4)">
     <!-- b1 -->
     <g transform="translate(277.72352 67.875614) scale(0.12 -0.12)">
      <defs>
       <path id="DejaVuSans-62" d="M 3116 1747 
Q 3116 2381 2855 2742 
Q 2594 3103 2138 3103 
Q 1681 3103 1420 2742 
Q 1159 2381 1159 1747 
Q 1159 1113 1420 752 
Q 1681 391 2138 391 
Q 2594 391 2855 752 
Q 3116 1113 3116 1747 
z
M 1159 2969 
Q 1341 3281 1617 3432 
Q 1894 3584 2278 3584 
Q 2916 3584 3314 3078 
Q 3713 2572 3713 1747 
Q 3713 922 3314 415 
Q 2916 -91 2278 -91 
Q 1894 -91 1617 61 
Q 1341 213 1159 525 
L 1159 0 
L 581 0 
L 581 4863 
L 1159 4863 
L 1159 2969 
z
" transform="scale(0.015625)"/>
      </defs>
      <use xlink:href="#DejaVuSans-62"/>
      <use xlink:href="#DejaVuSans-31" x="63.476562"/>
     </g>
    </g>
   </g>
   <g id="text_3">
    <g clip-path="url(#pf33905e7b4)">
     <!-- b2 -->
     <g transform="translate(277.72352 141.184705) scale(0.12 -0.12)">
      <defs>
       <path id="DejaVuSans-32" d="M 1228 531 
L 3431 531 
L 3431 0 
L 469 0 
L 469 531 
Q 828 903 1448 1529 
Q 2069 2156 2228 2338 
Q 2531 2678 2651 2914 
Q 2772 3150 2772 3378 
Q 2772 3750 2511 3984 
Q 2250 4219 1831 4219 
Q 1534 4219 1204 4116 
Q 875 4013 500 3803 
L 500 4441 
Q 881 4594 1212 4672 
Q 1544 4750 1819 4750 
Q 2544 4750 2975 4387 
Q 3406 4025 3406 3419 
Q 3406 3131 3298 2873 
Q 3191 2616 2906 2266 
Q 2828 2175 2409 1742 
Q 1991 1309 1228 531 
z
" transform="scale(0.015625)"/>
      </defs>
      <use xlink:href="#DejaVuSans-62"/>
      <use xlink:href="#DejaVuSans-32" x="63.476562"/>
     </g>
    </g>
   </g>
   <g id="text_4">
    <g clip-path="url(#pf33905e7b4)">
     <!-- p2 -->
     <g transform="translate(179.343355 141.184705) scale(0.12 -0.12)">
      <use xlink:href="#DejaVuSans-70"/>
      <use xlink:href="#DejaVuSans-32" x="63.476562"/>
     </g>
    </g>
   </g>
   <g id="text_5">
    <g clip-path="url(#pf33905e7b4)">
     <!-- b3 -->
     <g transform="translate(277.72352 214.493795) scale(0.12 -0.12)">
      <defs>
       <path id="DejaVuSans-33" d="M 2597 2516 
Q 3050 2419 3304 2112 
Q 3559 1806 3559 1356 
Q 3559 666 3084 287 
Q 2609 -91 1734 -91 
Q 1441 -91 1130 -33 
Q 819 25 488 141 
L 488 750 
Q 750 597 1062 519 
Q 1375 441 1716 441 
Q 2309 441 2620 675 
Q 2931 909 2931 1356 
Q 2931 1769 2642 2001 
Q 2353 2234 1838 2234 
L 1294 2234 
L 1294 2753 
L 1863 2753 
Q 2328 2753 2575 2939 
Q 2822 3125 2822 3475 
Q 2822 3834 2567 4026 
Q 2313 4219 1838 4219 
Q 1578 4219 1281 4162 
Q 984 4106 628 3988 
L 628 4550 
Q 988 4650 1302 4700 
Q 1616 4750 1894 4750 
Q 2613 4750 3031 4423 
Q 3450 4097 3450 3541 
Q 3450 3153 3228 2886 
Q 3006 2619 2597 2516 
z
" transform="scale(0.015625)"/>
      </defs>
      <use xlink:href="#DejaVuSans-62"/>
      <use xlink:href="#DejaVuSans-33" x="63.476562"/>
     </g>
    </g>
   </g>
   <g id="text_6">
    <g clip-path="url(#pf33905e7b4)">
     <!-- p3 -->
     <g transform="translate(179.343355 214.493795) scale(0.12 -0.12)">
      <use xlink:href="#DejaVuSans-70"/>
      <use xlink:href="#DejaVuSans-33" x="63.476562"/>
     </g>
    </g>
   </g>
   <g id="text_7">
    <g clip-path="url(#pf33905e7b4)">
     <!-- b4 -->
     <g transform="translate(277.72352 287.802886) scale(0.12 -0.12)">
      <defs>
       <path id="DejaVuSans-34" d="M 2419 4116 
L 825 1625 
L 2419 1625 
L 2419 4116 
z
M 2253 4666 
L 3047 4666 
L 3047 1625 
L 3713 1625 
L 3713 1100 
L 3047 1100 
L 3047 0 
L 2419 0 
L 2419 1100 
L 313 1100 
L 313 1709 
L 2253 4666 
z
" transform="scale(0.015625)"/>
      </defs>
      <use xlink:href="#DejaVuSans-62"/>
      <use xlink:href="#DejaVuSans-34" x="63.476562"/>
     </g>
    </g>
   </g>
   <g id="text_8">
    <g clip-path="url(#pf33905e7b4)">
     <!-- p4 -->
     <g transform="translate(179.343355 287.802886) scale(0.12 -0.12)">
      <use xlink:href="#DejaVuSans-70"/>
      <use xlink:href="#DejaVuSans-34" x="63.476562"/>
     </g>
    </g>
   </g>
   <g id="text_9">
    <g clip-path="url(#pf33905e7b4)">
     <!-- s -->
     <g transform="translate(85.464127 177.83925) scale(0.12 -0.12)">
      <defs>
       <path id="DejaVuSans-73" d="M 2834 3397 
L 2834 2853 
Q 2591 2978 2328 3040 
Q 2066 3103 1784 3103 
Q 1356 3103 1142 2972 
Q 928 2841 928 2578 
Q 928 2378 1081 2264 
Q 1234 2150 1697 2047 
L 1894 2003 
Q 2506 1872 2764 1633 
Q 3022 1394 3022 966 
Q 3022 478 2636 193 
Q 2250 -91 1575 -91 
Q 1294 -91 989 -36 
Q 684 19 347 128 
L 347 722 
Q 666 556 975 473 
Q 1284 391 1588 391 
Q 1994 391 2212 530 
Q 2431 669 2431 922 
Q 2431 1156 2273 1281 
Q 2116 1406 1581 1522 
L 1381 1569 
Q 847 1681 609 1914 
Q 372 2147 372 2553 
Q 372 3047 722 3315 
Q 1072 3584 1716 3584 
Q 2034 3584 2315 3537 
Q 2597 3491 2834 3397 
z
" transform="scale(0.015625)"/>
      </defs>
      <use xlink:href="#DejaVuSans-73"/>
     </g>
    </g>
   </g>
   <g id="text_10">
    <g clip-path="url(#pf33905e7b4)">
     <!-- d -->
     <g transform="translate(379.921185 177.83925) scale(0.12 -0.12)">
      <defs>
       <path id="DejaVuSans-64" d="M 2906 2969 
L 2906 4863 
L 3481 4863 
L 3481 0 
L 2906 0 
L 2906 525 
Q 2725 213 2448 61 
Q 2172 -91 1784 -91 
Q 1150 -91 751 415 
Q 353 922 353 1747 
Q 353 2572 751 3078 
Q 1150 3584 1784 3584 
Q 2172 3584 2448 3432 
Q 2725 3281 2906 2969 
z
M 947 1747 
Q 947 1113 1208 752 
Q 1469 391 1925 391 
Q 2381 391 2643 752 
Q 2906 1113 2906 1747 
Q 2906 2381 2643 2742 
Q 2381 3103 1925 3103 
Q 1469 3103 1208 2742 
Q 947 2381 947 1747 
z
" transform="scale(0.015625)"/>
      </defs>
      <use xlink:href="#DejaVuSans-64"/>
     </g>
    </g>
   </g>
  </g>
 </g>
 <defs>
  <clipPath id="pf33905e7b4">
   <rect x="57.6" y="41.472" width="357.12" height="266.112"/>
  </clipPath>
 </defs>
</svg>
